<mxfile host="65bd71144e">
    <diagram id="m2edYQH8ufwgLaq6v9bG" name="第 1 页">
        <mxGraphModel dx="1179" dy="661" grid="0" gridSize="10" guides="1" tooltips="1" connect="1" arrows="1" fold="1" page="0" pageScale="1" pageWidth="1169" pageHeight="1654" background="#ffffff" math="0" shadow="0">
            <root>
                <mxCell id="0"/>
                <mxCell id="1" parent="0"/>
                <mxCell id="2" value="new Vue()" style="rounded=0;whiteSpace=wrap;html=1;fillColor=#e51400;strokeColor=#B20000;fontColor=#ffffff;fontSize=18;" parent="1" vertex="1">
                    <mxGeometry x="71" y="191" width="141" height="63" as="geometry"/>
                </mxCell>
                <mxCell id="4" value="" style="endArrow=classic;html=1;fontColor=#FFFFFF;strokeColor=#3333FF;strokeWidth=3;" parent="1" edge="1">
                    <mxGeometry width="50" height="50" relative="1" as="geometry">
                        <mxPoint x="137" y="68" as="sourcePoint"/>
                        <mxPoint x="137" y="181" as="targetPoint"/>
                    </mxGeometry>
                </mxCell>
                <mxCell id="9" value="Oberver" style="rounded=0;whiteSpace=wrap;html=1;fillColor=#e3c800;strokeColor=#B09500;fontColor=#000000;fontSize=18;" parent="1" vertex="1">
                    <mxGeometry x="320" y="94" width="141" height="63" as="geometry"/>
                </mxCell>
                <mxCell id="10" value="Compliler" style="rounded=0;whiteSpace=wrap;html=1;fillColor=#e3c800;strokeColor=#B09500;fontColor=#000000;fontSize=18;" parent="1" vertex="1">
                    <mxGeometry x="320" y="295" width="141" height="63" as="geometry"/>
                </mxCell>
                <mxCell id="11" value="" style="endArrow=classic;html=1;fontColor=#FFFFFF;strokeColor=#3333FF;strokeWidth=3;" parent="1" edge="1">
                    <mxGeometry width="50" height="50" relative="1" as="geometry">
                        <mxPoint x="225" y="218" as="sourcePoint"/>
                        <mxPoint x="315" y="124" as="targetPoint"/>
                    </mxGeometry>
                </mxCell>
                <mxCell id="12" value="" style="endArrow=classic;html=1;fontColor=#FFFFFF;strokeColor=#3333FF;strokeWidth=3;" parent="1" edge="1">
                    <mxGeometry width="50" height="50" relative="1" as="geometry">
                        <mxPoint x="226" y="226" as="sourcePoint"/>
                        <mxPoint x="313" y="324" as="targetPoint"/>
                    </mxGeometry>
                </mxCell>
                <mxCell id="13" value="data数据" style="text;html=1;strokeColor=none;fillColor=none;align=center;verticalAlign=middle;whiteSpace=wrap;rounded=0;fontColor=#000000;fontSize=14;" parent="1" vertex="1">
                    <mxGeometry x="216" y="143" width="60" height="30" as="geometry"/>
                </mxCell>
                <mxCell id="14" value="el模板" style="text;html=1;strokeColor=none;fillColor=none;align=center;verticalAlign=middle;whiteSpace=wrap;rounded=0;fontColor=#000000;fontSize=14;" parent="1" vertex="1">
                    <mxGeometry x="216" y="272" width="60" height="30" as="geometry"/>
                </mxCell>
                <mxCell id="15" value="监听所有的data属性&lt;br&gt;（使用Object.defineProperty）" style="text;html=1;strokeColor=none;fillColor=none;align=center;verticalAlign=middle;whiteSpace=wrap;rounded=0;fontColor=#000000;fontSize=14;" parent="1" vertex="1">
                    <mxGeometry x="291.5" y="51" width="198" height="40" as="geometry"/>
                </mxCell>
                <mxCell id="16" value="解析el模板中的指令/插值表达式" style="text;html=1;strokeColor=none;fillColor=none;align=center;verticalAlign=middle;whiteSpace=wrap;rounded=0;fontColor=#000000;fontSize=14;" parent="1" vertex="1">
                    <mxGeometry x="281.25" y="364" width="218.5" height="39" as="geometry"/>
                </mxCell>
                <mxCell id="18" value="Dep&lt;br&gt;（发布者）" style="rounded=0;whiteSpace=wrap;html=1;fillColor=#6d8764;strokeColor=#3A5431;fontSize=18;fontColor=#ffffff;" parent="1" vertex="1">
                    <mxGeometry x="722" y="92" width="141" height="63" as="geometry"/>
                </mxCell>
                <mxCell id="19" value="View" style="rounded=0;whiteSpace=wrap;html=1;fillColor=#6d8764;strokeColor=#3A5431;fontColor=#ffffff;fontSize=18;" parent="1" vertex="1">
                    <mxGeometry x="725" y="355" width="141" height="63" as="geometry"/>
                </mxCell>
                <mxCell id="20" value="" style="endArrow=classic;html=1;fontColor=#FFFFFF;strokeColor=#3333FF;strokeWidth=3;" parent="1" edge="1">
                    <mxGeometry width="50" height="50" relative="1" as="geometry">
                        <mxPoint x="465" y="129" as="sourcePoint"/>
                        <mxPoint x="715" y="129" as="targetPoint"/>
                    </mxGeometry>
                </mxCell>
                <mxCell id="21" value="" style="endArrow=classic;html=1;fontColor=#FFFFFF;strokeColor=#3333FF;strokeWidth=3;" parent="1" edge="1">
                    <mxGeometry width="50" height="50" relative="1" as="geometry">
                        <mxPoint x="465" y="326" as="sourcePoint"/>
                        <mxPoint x="713" y="387" as="targetPoint"/>
                    </mxGeometry>
                </mxCell>
                <mxCell id="22" value="当捕获到set操作时，通知变化" style="text;html=1;strokeColor=none;fillColor=none;align=center;verticalAlign=middle;whiteSpace=wrap;rounded=0;fontColor=#000000;fontSize=14;" parent="1" vertex="1">
                    <mxGeometry x="482" y="89" width="198" height="40" as="geometry"/>
                </mxCell>
                <mxCell id="23" value="Watcher&lt;br&gt;（订阅者）" style="rounded=0;whiteSpace=wrap;html=1;fillColor=#1ba1e2;strokeColor=#006EAF;fontSize=18;fontColor=#ffffff;" parent="1" vertex="1">
                    <mxGeometry x="1033" y="216" width="141" height="63" as="geometry"/>
                </mxCell>
                <mxCell id="24" value="" style="endArrow=classic;html=1;fontColor=#FFFFFF;strokeColor=#3333FF;strokeWidth=3;" parent="1" edge="1">
                    <mxGeometry width="50" height="50" relative="1" as="geometry">
                        <mxPoint x="869" y="119" as="sourcePoint"/>
                        <mxPoint x="1104" y="206" as="targetPoint"/>
                    </mxGeometry>
                </mxCell>
                <mxCell id="25" value="通知执行更新" style="text;html=1;strokeColor=none;fillColor=none;align=center;verticalAlign=middle;whiteSpace=wrap;rounded=0;fontColor=#000000;fontSize=14;" parent="1" vertex="1">
                    <mxGeometry x="896" y="121.4" width="198" height="40" as="geometry"/>
                </mxCell>
                <mxCell id="26" value="" style="endArrow=classic;html=1;fontColor=#FFFFFF;strokeColor=#3333FF;strokeWidth=3;" parent="1" edge="1">
                    <mxGeometry width="50" height="50" relative="1" as="geometry">
                        <mxPoint x="1021" y="251" as="sourcePoint"/>
                        <mxPoint x="817" y="163" as="targetPoint"/>
                    </mxGeometry>
                </mxCell>
                <mxCell id="27" value="添加订阅者" style="text;html=1;strokeColor=none;fillColor=none;align=center;verticalAlign=middle;whiteSpace=wrap;rounded=0;fontColor=#000000;fontSize=14;" parent="1" vertex="1">
                    <mxGeometry x="753" y="184" width="198" height="40" as="geometry"/>
                </mxCell>
                <mxCell id="28" value="" style="endArrow=classic;html=1;fontColor=#FFFFFF;strokeColor=#3333FF;strokeWidth=3;" parent="1" edge="1">
                    <mxGeometry width="50" height="50" relative="1" as="geometry">
                        <mxPoint x="1106" y="288" as="sourcePoint"/>
                        <mxPoint x="873" y="385" as="targetPoint"/>
                    </mxGeometry>
                </mxCell>
                <mxCell id="29" value="更新视图" style="text;html=1;strokeColor=none;fillColor=none;align=center;verticalAlign=middle;whiteSpace=wrap;rounded=0;fontColor=#000000;fontSize=14;" parent="1" vertex="1">
                    <mxGeometry x="908" y="339" width="198" height="40" as="geometry"/>
                </mxCell>
                <mxCell id="30" value="初始化视图" style="text;html=1;strokeColor=none;fillColor=none;align=center;verticalAlign=middle;whiteSpace=wrap;rounded=0;fontColor=#000000;fontSize=14;" parent="1" vertex="1">
                    <mxGeometry x="530" y="366.5" width="198" height="40" as="geometry"/>
                </mxCell>
                <mxCell id="31" value="" style="endArrow=classic;html=1;fontColor=#FFFFFF;strokeColor=#3333FF;strokeWidth=3;" parent="1" edge="1">
                    <mxGeometry width="50" height="50" relative="1" as="geometry">
                        <mxPoint x="470" y="311" as="sourcePoint"/>
                        <mxPoint x="1019" y="274" as="targetPoint"/>
                    </mxGeometry>
                </mxCell>
                <mxCell id="32" value="订阅数据变化，绑定更新函数" style="text;html=1;strokeColor=none;fillColor=none;align=center;verticalAlign=middle;whiteSpace=wrap;rounded=0;fontColor=#000000;fontSize=14;" parent="1" vertex="1">
                    <mxGeometry x="568" y="259" width="198" height="40" as="geometry"/>
                </mxCell>
            </root>
        </mxGraphModel>
    </diagram>
</mxfile>